/* XPM */
static char * block_xpm[] = {
"16 16 2 1",
" 	c #AE4C68",
".	c #E43667",
"                ",
" .............. ",
" .............. ",
" .............. ",
" .............. ",
" .............. ",
" .............. ",
" .............. ",
" .............. ",
" .............. ",
" .............. ",
" .............. ",
" .............. ",
" .............. ",
" .............. ",
"                "};
