/* XPM */
static char *c735462a90d348a4bc367b82c03937abPwW5mYeNwk5xStce[] = {
/* columns rows colors chars-per-pixel */
"16 16 2 1 ",
"  c #585659",
". c #847E87",
/* pixels */
" ....... .......",
" ....... .......",
" ....... .......",
"                ",
".... ....... ...",
".... ....... ...",
".... ....... ...",
"                ",
" ....... .......",
" ....... .......",
" ....... .......",
"                ",
"...... ....... .",
"...... ....... .",
"...... ....... .",
"                "
};
