/* XPM */
static char *_06c433649b0463bb25dc327acf4a91bG9jqHLzBGJgyQFtF[] = {
/* columns rows colors chars-per-pixel */
"32 32 203 2 ",
"   c None",
".  c gray13",
"X  c #222222",
"o  c #232323",
"O  c gray14",
"+  c #252525",
"@  c gray15",
"#  c #272727",
"$  c #282828",
"%  c #2A2A2A",
"&  c gray17",
"*  c #2C2C2C",
"=  c #2D2D2D",
"-  c gray18",
";  c #2F2F2F",
":  c gray19",
">  c #313131",
",  c #323232",
"<  c gray20",
"1  c #343434",
"2  c #353535",
"3  c gray21",
"4  c #373737",
"5  c gray22",
"6  c gray23",
"7  c gray24",
"8  c #3E3E3E",
"9  c #4C4C4C",
"0  c gray33",
"q  c #5A5A5A",
"w  c #5B5B5B",
"e  c #5D5D5D",
"r  c gray37",
"t  c #5F5F5F",
"y  c #626262",
"u  c #676767",
"i  c gray42",
"p  c #6D6D6D",
"a  c gray43",
"s  c #6F6F6F",
"d  c #717171",
"f  c gray45",
"g  c #767676",
"h  c #7B7B7B",
"j  c #7C7C7C",
"k  c #7E7E7E",
"l  c #808080",
"z  c #818181",
"x  c gray51",
"c  c #838383",
"v  c #848484",
"b  c #888888",
"n  c #909090",
"m  c gray57",
"M  c #929292",
"N  c #939393",
"B  c gray58",
"V  c gray59",
"C  c #979797",
"Z  c #989898",
"A  c gray60",
"S  c #9A9A9A",
"D  c gray61",
"F  c #9F9F9F",
"G  c #A0A0A0",
"H  c #A4A4A4",
"J  c #A5A5A5",
"K  c gray65",
"L  c #A7A7A7",
"P  c #A9A9A9",
"I  c #ACACAC",
"U  c #AFAFAF",
"Y  c #B2B2B2",
"T  c gray70",
"R  c #B7BCBF",
"E  c #B9B9B9",
"W  c #BBBBBB",
"Q  c #BCBCBC",
"!  c #B7BCC0",
"~  c #B9BEC1",
"^  c #BABEC2",
"/  c #BCC0C4",
"(  c #C0C0C0",
")  c #C0C4C7",
"_  c #C0C4C8",
"`  c #C1C5C8",
"'  c #C2C5C9",
"]  c #C2C6C9",
"[  c #C3C7CA",
"{  c #C4C8CB",
"}  c #C5C9CB",
"|  c #C5C9CC",
" . c #C6C9CC",
".. c #C6CACD",
"X. c #C7CACD",
"o. c #C7CBCD",
"O. c #C7CBCE",
"+. c #CACACA",
"@. c #C8CBCE",
"#. c #C8CCCF",
"$. c #C9CCCF",
"%. c #CECECE",
"&. c gray81",
"*. c #CACDD0",
"=. c #CACED0",
"-. c #CACED1",
";. c #CBCED1",
":. c #CCCFD2",
">. c #CCD0D2",
",. c #CDD0D3",
"<. c #CDD1D3",
"1. c #CED1D3",
"2. c #CED1D4",
"3. c #CFD2D4",
"4. c gray82",
"5. c #D0D3D5",
"6. c #D0D3D6",
"7. c #D0D4D6",
"8. c #D1D4D6",
"9. c #D1D4D7",
"0. c #D3D5D8",
"q. c #D3D6D8",
"w. c #D4D6D9",
"e. c #D4D7D9",
"r. c #D5D7DA",
"t. c #D5D8DA",
"y. c #D6D9DB",
"u. c #D7D9DB",
"i. c #D7D9DC",
"p. c #D7DADC",
"a. c #D8DADC",
"s. c #D8DBDD",
"d. c #D9DBDD",
"f. c #D9DCDD",
"g. c #D9DCDE",
"h. c #DADCDE",
"j. c #DADDDE",
"k. c #DADDDF",
"l. c #DBDDDF",
"z. c #DBDEDF",
"x. c #DCDEE0",
"c. c #DDDFE1",
"v. c #DDE0E1",
"b. c #DEE0E2",
"n. c #DEE1E2",
"m. c #DFE1E3",
"M. c #E0E2E3",
"N. c #E0E2E4",
"B. c #E1E3E4",
"V. c #E1E3E5",
"C. c #E2E4E5",
"Z. c #E2E4E6",
"A. c #E3E5E6",
"S. c #E3E5E7",
"D. c #E4E6E8",
"F. c #E5E6E8",
"G. c #E5E7E8",
"H. c #E5E7E9",
"J. c #E6E8E9",
"K. c #E7E8E9",
"L. c #E7E9EA",
"P. c #E8E9EA",
"I. c #E8EAEB",
"U. c #E9EAEB",
"Y. c #E9EBEC",
"T. c #EAEBEC",
"R. c #EAECED",
"E. c #EBECED",
"W. c #EBEDEE",
"Q. c gray93",
"!. c #ECEDEE",
"~. c #EDEEEF",
"^. c #EEEEEE",
"/. c #EFEFEF",
"(. c #EFF0F1",
"). c #EFF1F1",
"_. c gray94",
"`. c #F0F1F1",
"'. c #F0F1F2",
"]. c gray95",
"[. c #F3F4F5",
"{. c #F4F4F4",
"}. c #F4F5F5",
"|. c gray96",
" X c #F6F6F6",
".X c #F8F8F8",
"XX c #F8F9F9",
"oX c #F9F9F9",
"OX c #F9F9FA",
"+X c #F9FAFA",
"@X c gray98",
"#X c #FAFAFB",
"$X c #FAFBFB",
"%X c #FBFBFB",
"&X c #FBFBFC",
"*X c #FBFCFC",
"=X c gray99",
"-X c #FCFDFD",
";X c #FDFDFD",
":X c #FDFDFE",
">X c #FDFEFE",
",X c #FEFEFE",
"<X c white",
/* pixels */
"              . . . . . . . . . .             . @ = = $ .       ",
"@ 0 l l l l l n n n n n n n n n n l d p p j v n A K K A l l 0 @ ",
"@ B <X%X%X%X<X<X<X<X<X<X<X<X<X<X<X<X{.{.{.%X<X<X<X<X<X<X<X<Xn . ",
"< Y <X<X<X<X<X<X<X<X<X<X<X<X<X<X<X<X<X<X<X<X<X<X<X<X<X<X<X<Xn . ",
"6 +.<X<X<X<X<X<X<X<X<X<X<X<X<X<X<X<X<X<X<X<X<X<X<X<X<X<X<X<Xn . ",
"< U <X<X<X'.M.J.V.u.u.u.u.u.u.u.u.u.u.p.s.v.D.v.l.s.'.<X<X<Xn . ",
"= K <X<X<Xs.^  .:.w.u.u.u.u.u.u.u.u.q.` ! {  .>.u.{ u.<X<X<Xn . ",
"= P <X<X<Xu.w.%X&X<X<X<X<X<X<X<X<X<Xq. .D.%X%X<X<Xs.w.<X<X<Xn . ",
"< U <X<X<Xu.u.<X<X<X<X<X<X<X<X<X<XR.{ (.<X<X<X<X<Xu.u.<X<X<Xb . ",
"$ D <X<X<Xu.u.<X<X<X<X<X<X<X<X<X/.$.S.<X<X<X<X<X<Xs.p.<X<X{.d   ",
"  h %X<X<Xu.u.<X<X<X<X<X<X<X<XJ.` l.<X<X<X<X<X<X<Xw.s.<X<X/.r   ",
"  p {.<X<Xu.u.<X<X<X<X<X<X<XJ.` M.<X<X<X<X<X<X%Xl.^ p.<X<X/.w   ",
"  p {.<X<Xl.q.<X<X<X<X<X<X(.` V.<X<X<X<X<X<X<Xs.-.w.6.<X<X'.u   ",
"  g %X<X<XS.>.*X<X<X<X<XY. .v.<X<X<X<X<X<X<Xv.` (.J.>.%X<X{.d   ",
"  l %X<X<XD.>.%X<X<X<XY. .V.<X<X<X<X<X<X<XU.` U.<XM.3.<X<X<Xv   ",
". l <X<X<Xv.8.<X<X<X[. .S.<X<X<X<X<X<X<X/.@.S.<X*X-.l.<X<X<XB @ ",
"@ n <X<X<Xv.8.<X<X{.:.6.%X<X<X<X<X<X<XM.` S.<X<X%X .D.<X<X<XU < ",
"3 Q <X<X<XM.6.<X(.-.l.%X<X<X<X<X<X<Xv.` J.<X<X<X<X>.V.<X<X<XE 3 ",
"7 &.<X<X<XD.>.J.` v.<X<X<X<X<X<X<XR. .R.<X<X<X<X<Xu.s.<X<X<XY 3 ",
"3 E <X<X<XS./ ) l.<X<X<X<X<X<X<X/.` S.<X<X<X<X<X<Xu.u.<X<X<XK = ",
"@ A <X<X<Xl.R V.<X<X<X<X<X<X<XU. .l.<X<X<X<X<X<X<Xq.l.<X<X<XB . ",
"  l <X<X<Xu.8.<X<X<X<X<X<X<XV.{ J.<X<X<X<X<X<X<X<X8.v.<X<X<Xn . ",
"  l %X<X<Xu.u.<X<X<X<X<X<XD.` J.<X<X<X<X<X<X<X<X<X3.V.<X<X<Xn . ",
"  l %X<X<Xu.u.<X<X<X<X<X/.` V.<X<X<X<X<X<X<X<X<X<X8.c.<X<X<Xn . ",
"  j %X<X<Xu.u.<X<X<X<X'.$.S.<X<X<X<X<X<X<X<X<X<X<Xu.p.<X<X<Xv   ",
"  y '.<X<Xp.` l.v.D.v.) @.U.c.u.u.p.c.v.v.c.u.u.p.` u.<X<X%Xj   ",
"  r /.<X<X/.p.w.>. . .-. . .-.w.u.u.8.8.8.q.u.u.u.u./.<X<X{.p   ",
"  i {.<X<X<X<X<X<X%X%X<X%X%X&X<X<X<X<X<X<X<X<X<X<X<X<X<X<X{.p   ",
"  i {.<X<X<X<X<X<X<X<X<X<X<X<X<X<X<X<X<X<X<X<X<X<X<X<X<X<X<Xl   ",
"  r /.<X<X<X<X<X<X<X<X<X<X<X<X<X<X<X<X<X<X<X<X<X<X<X<X<X%X<Xn . ",
"  9 D A n B K Q &.4.&.( E P K K K B n n n n n G K K n l l v w @ ",
"  $ = @   @ = 3 7 7 7 6 3 = = = = . . . . . . $ = = .       @   "
};
