/* XPM */
static char *_c0e8e81fb754964ce4506310b834242BmGpf27XkLIrdZfh[] = {
/* columns rows colors chars-per-pixel */
"32 32 170 2 ",
"   c #D0D7DA",
".  c #CFD6DA",
"X  c #CED5D9",
"o  c #CED5D9",
"O  c #CED5D9",
"+  c #CFD5D9",
"@  c #CFD5D9",
"#  c #CFD6DA",
"$  c #D0D6DA",
"%  c #CFD5DA",
"&  c #D2D8DC",
"*  c #D3D9DD",
"=  c #D1D7DB",
"-  c #CFD5D9",
";  c #CED5D9",
":  c #CED5D9",
">  c #CFD6D9",
",  c #D1D7DB",
"<  c #D3D9DC",
"1  c #D1D7DB",
"2  c #D0D6DA",
"3  c #CFD6DA",
"4  c #D0D7DA",
"5  c #D0D6DA",
"6  c #DADFE2",
"7  c #E3E7E9",
"8  c #E3E7EA",
"9  c None",
"0  c #E6E9EB",
"q  c #E3E7E9",
"w  c #D1D7DB",
"e  c #D2D8DC",
"r  c #D0D6DA",
"t  c #CED5D9",
"y  c #E4E8EA",
"u  c #CED5D9",
"i  c #E4E7EA",
"p  c #D0D6DA",
"a  c #D2D8DC",
"s  c #CED5D9",
"d  c #D3D9DD",
"f  c #E0E4E7",
"g  c #CED5D9",
"h  c #D1D7DB",
"j  c #DBE0E3",
"k  c #CFD5D9",
"l  c #D0D5DA",
"z  c #DBE0E3",
"x  c #CFD5D9",
"c  c #D2D8DC",
"v  c #DEE2E5",
"b  c #CED5D9",
"n  c #D1D7DB",
"m  c #E0E4E6",
"M  c #CED5D9",
"N  c #CED5D9",
"B  c #DEE3E5",
"V  c #CFD6DA",
"C  c #CFD6D9",
"Z  c #D5DBDE",
"A  c #CFD5D9",
"S  c #D2D8DB",
"D  c #D2D8DB",
"F  c #D2D8DC",
"G  c #D4DADE",
"H  c #DEE3E5",
"J  c #CFD5D9",
"K  c #D3D9DC",
"L  c #DDE2E5",
"P  c #CED5D9",
"I  c #D0D6DA",
"U  c #CED5D9",
"Y  c #CED5D9",
"T  c #E4E7EA",
"R  c #E2E6E8",
"E  c #DFE3E6",
"W  c #CED5D9",
"Q  c #CFD5DA",
"!  c #CFD4D9",
"~  c #DDE1E4",
"^  c #CFD5D9",
"/  c #DCE0E3",
"(  c #D0D6DA",
")  c #CED4D9",
"_  c #E5E8EB",
"`  c #CED5D9",
"'  c #CED5D9",
"]  c #DFE3E6",
"[  c #E2E6E8",
"{  c #CED5D9",
"}  c #CFD5D9",
"|  c #DCE1E4",
" . c #E2E6E8",
".. c #CED5D9",
"X. c #CFD6D9",
"o. c #D8DDE0",
"O. c #E3E7E9",
"+. c #D0D6DA",
"@. c #D1D7DB",
"#. c #D2D8DC",
"$. c #D4D9DD",
"%. c #D3D8DC",
"&. c #D2D7DB",
"*. c #D2D7DB",
"=. c #CFD5D9",
"-. c #D0D6DA",
";. c #CFD5D9",
":. c #D1D7DB",
">. c #CFD5D9",
",. c #D0D6DA",
"<. c #D0D6DB",
"1. c #E7EAEC",
"2. c #DFE3E6",
"3. c #D6DBDF",
"4. c #E6E9EB",
"5. c #EEF0F2",
"6. c #F0F2F3",
"7. c #ECEEF0",
"8. c #EBEEF0",
"9. c #E9ECED",
"0. c #DCE0E3",
"q. c #EAECEE",
"w. c white",
"e. c #FEFEFE",
"r. c #DDE1E4",
"t. c #FBFCFC",
"y. c #EDEFF1",
"u. c #E0E4E6",
"i. c #FCFCFD",
"p. c #E9ECEE",
"a. c #E0E4E7",
"s. c #F3F5F6",
"d. c #DDE2E5",
"f. c #FBFBFC",
"g. c #E8EBED",
"h. c #EDF0F1",
"j. c #E1E5E7",
"k. c #FDFDFD",
"l. c #EEF0F1",
"z. c #EBEEEF",
"x. c #E3E7E9",
"c. c #E5E8EA",
"v. c #EBEDEF",
"b. c #E4E7EA",
"n. c #EAEDEF",
"m. c #FDFDFE",
"M. c #E2E6E8",
"N. c #DEE2E5",
"B. c #F1F3F4",
"V. c gray99",
"C. c #EAEDEE",
"Z. c #F4F5F6",
"A. c #FCFDFD",
"S. c #E3E6E9",
"D. c #E5E9EB",
"F. c #E2E6E9",
"G. c #DBDFE3",
"H. c #DBE0E3",
"J. c #E6E9EC",
"K. c #D8DDE0",
"L. c #EDEFF0",
"P. c #FDFEFE",
"I. c #EFF1F3",
"U. c #DEE3E5",
"Y. c #E9EBED",
"T. c #E4E8EA",
"R. c #E6EAEC",
"E. c #ECEFF0",
"W. c #DADEE2",
"Q. c #D9DEE1",
/* pixels */
"  . X X X o O + @ @ @ @ @ @ @ # $ % & * = - ; : > , * < 1 2 3 4 ",
"5 6 7 7 7 7 8 9 1.1.1.1.1.1.1.2.3.4.5.6.7.0 q q 0 7.6.5.8.9.0.5 ",
"w q.w.e.e.e.e.e.w.w.w.w.w.w.w.6.r.t.w.w.w.e.e.e.e.w.w.w.w.w.1.@ ",
"e y.w.w.w.w.w.w.w.w.w.w.w.w.w.5.u.i.w.w.w.w.w.w.w.w.w.w.w.w.1.@ ",
"r p.w.w.w.w.w.w.w.w.w.w.w.w.w.6.a.i.w.w.w.w.w.w.w.w.w.w.w.w.1.@ ",
"t y e.w.w.w.w.w.w.w.w.w.w.w.w.s.d.f.w.w.w.w.w.w.w.w.w.w.w.w.1.@ ",
"u i e.w.w.w.w.w.w.w.w.w.w.w.w.s.d.f.w.w.w.w.w.w.w.w.w.w.w.w.1.@ ",
"p g.w.w.w.w.w.w.w.w.w.w.w.w.w.h.j.k.w.w.w.w.w.w.w.w.w.w.w.w.1.@ ",
"a l.w.w.w.w.w.w.w.w.w.w.w.w.w.z.x.e.w.w.w.w.w.w.w.w.w.w.w.w.c.s ",
"d 6.w.w.w.w.w.w.w.w.w.w.w.w.w.v.b.e.w.w.w.w.w.w.w.w.w.w.w.k.f g ",
"h n.w.w.w.w.w.w.w.w.w.w.w.w.w.1.4.w.w.w.w.w.w.w.w.w.w.w.w.f.j k ",
"l g.w.w.w.w.w.w.w.w.w.w.w.w.m.M.v.w.w.w.w.w.w.w.w.w.w.w.w.f.z x ",
"c 5.w.w.w.w.w.w.w.w.w.w.w.w.t.N.B.w.w.w.w.w.w.w.w.w.w.w.w.V.v b ",
"n C.w.w.w.w.w.w.w.w.w.w.w.w.f.d.Z.w.w.w.w.w.w.w.w.w.w.w.w.k.m M ",
"N B A.e.e.e.w.w.w.w.w.w.w.w.e.S.v.w.e.e.e.w.w.w.w.w.w.w.w.e.D.V ",
"C Z b.F.x.h.Z.B.n.1.1.1.1.1.1.G.H.4.F.x.h.Z.B.n.1.1.1.1.1.1.r.1 ",
"A 0.1.1.D.j.d.2.M.J.1.1.1.1.1.2.K.4.1.D.j.d.2.M.J.1.1.1.1.1.2.S ",
"D L.w.w.e.k.f.V.P.e.w.w.w.w.w.7.S.m.w.e.k.f.V.P.e.w.w.w.w.w.7.F ",
"G Z.w.w.w.w.w.w.w.w.w.w.w.w.i.2.y.w.w.w.w.w.w.w.w.w.w.w.w.i.H J ",
"K I.w.w.w.w.w.w.w.w.w.w.w.w.V.U.5.w.w.w.w.w.w.w.w.w.w.w.w.V.L P ",
"I Y.w.w.w.w.w.w.w.w.w.w.w.w.e.T.g.w.w.w.w.w.w.w.w.w.w.w.w.e.c.U ",
"Y T e.w.w.w.w.w.w.w.w.w.w.w.w.R.1.w.w.w.w.w.w.w.w.w.w.w.w.w.1.- ",
"o 7 e.w.w.w.w.w.w.w.w.w.w.w.P.F.z.w.w.w.w.w.w.w.w.w.w.w.w.P.R o ",
"X 7 e.w.w.w.w.w.w.w.w.w.w.w.A.a.l.w.w.w.w.w.w.w.w.w.w.w.w.A.E P ",
"W R P.w.w.w.w.w.w.w.w.w.w.w.w.D.4.w.w.w.w.w.w.w.w.w.w.w.w.w.4.Q ",
"! ~ t.w.w.w.w.w.w.w.w.w.w.w.w.v.x.e.w.w.w.w.w.w.w.w.w.w.w.w.z.h ",
"^ / t.w.w.w.w.w.w.w.w.w.w.w.w.g.c.w.w.w.w.w.w.w.w.w.w.w.w.w.9.( ",
") E A.w.w.w.w.w.w.w.w.w.w.w.w.c.g.w.w.w.w.w.w.w.w.w.w.w.w.w._ ` ",
"' ] i.w.w.w.w.w.w.w.w.w.w.w.P.F.E.w.w.w.w.w.w.w.w.w.w.w.w.P.[ { ",
"} | t.w.w.w.w.w.w.w.w.w.w.w.e.M.n.w.w.w.w.w.w.w.w.w.e.e.e.k. ...",
"X.o.7.6.6.5.8.8.8.8.8.8.8.z.1.W.0.1.1.1.1.1.1.n.8.z.9 O.7 q Q.$ ",
"+.@.#.* $.%.&.*.*.*.*.*.*.w =.$ -.@ @ @ @ - ;.:.&.1 >.u o O ,.<."
};
