/* XPM */
static char *_b1dae1602514efddf8f31fab1c7a727MLIBocfu8Loi6hzT[] = {
/* columns rows colors chars-per-pixel */
"32 32 246 2 ",
"   c black",
".  c gray14",
"X  c #161616",
"o  c gray13",
"O  c gray12",
"+  c #202020",
"@  c gray15",
"#  c #252525",
"$  c #272727",
"%  c gray21",
"&  c #282828",
"*  c gray16",
"=  c #A7A7A7",
"-  c #2A2A2A",
";  c #5A5A5A",
":  c #111111",
">  c #1D1D1D",
",  c gray13",
"<  c gray12",
"1  c #202020",
"2  c #202020",
"3  c gray13",
"4  c #202020",
"5  c #202020",
"6  c #202020",
"7  c #222222",
"8  c #202020",
"9  c gray10",
"0  c #1E1E1E",
"q  c #313131",
"w  c #5D5D5D",
"e  c #6F6F6F",
"r  c #7E7E7E",
"t  c #808080",
"y  c gray50",
"u  c #646464",
"i  c gray22",
"p  c gray14",
"a  c #202020",
"s  c #1E1E1E",
"d  c #252525",
"f  c #2A2A2A",
"g  c gray23",
"h  c #535354",
"j  c None",
"k  c #777777",
"l  c gray23",
"z  c #252525",
"x  c #1D1D1D",
"c  c #1E1E1E",
"v  c gray16",
"b  c gray44",
"n  c gray32",
"m  c #232323",
"M  c gray13",
"N  c gray14",
"B  c #5A5A5A",
"V  c #484848",
"C  c gray15",
"Z  c gray14",
"A  c #202020",
"S  c #3F3F3F",
"D  c gray26",
"F  c #232323",
"G  c gray14",
"H  c gray15",
"J  c gray50",
"K  c gray14",
"L  c gray13",
"P  c #444444",
"I  c #343434",
"U  c #222222",
"Y  c gray13",
"T  c #727272",
"R  c gray36",
"E  c #232323",
"W  c gray13",
"Q  c #222222",
"!  c gray13",
"~  c gray13",
"^  c gray13",
"/  c #848484",
"(  c gray13",
")  c gray13",
"_  c gray44",
"`  c gray13",
"'  c #202020",
"]  c gray31",
"[  c #535353",
"{  c #222222",
"}  c #1E1E1E",
"|  c gray21",
" . c #2C2C2C",
".. c #222222",
"X. c gray14",
"o. c gray34",
"O. c gray13",
"+. c #222222",
"@. c #3C3C3C",
"#. c #767676",
"$. c gray15",
"%. c gray12",
"&. c #222222",
"*. c #444444",
"=. c #313131",
"-. c #1E1E1E",
";. c gray14",
":. c gray14",
">. c #464646",
",. c #444444",
"<. c #1E1E1E",
"1. c #1B1B1B",
"2. c #232323",
"3. c #3C3C3C",
"4. c #797979",
"5. c #373737",
"6. c #222222",
"7. c gray13",
"8. c gray19",
"9. c #5F5F5F",
"0. c #868686",
"q. c #8D8D8D",
"w. c #646464",
"e. c gray24",
"r. c #272727",
"t. c #1B1B1B",
"y. c gray12",
"u. c #202020",
"i. c gray13",
"p. c gray13",
"a. c #202020",
"s. c #202020",
"d. c gray12",
"f. c #E9E9E9",
"g. c #F6F6F5",
"h. c #FBFBFB",
"j. c #FCFCFB",
"k. c #EFEFEF",
"l. c gray",
"z. c #CECECE",
"x. c #ECECEC",
"c. c #FDFDFD",
"v. c #FCFBFF",
"b. c #FAF9FF",
"n. c #FCFCFF",
"m. c #FEFEFF",
"M. c white",
"N. c #F8F8F8",
"B. c #E1E1E1",
"V. c #E4DFFF",
"C. c #B9A9FF",
"Z. c #B2A1FF",
"A. c #B2A2FF",
"S. c #BAABFF",
"D. c #C5B8FF",
"F. c #D2C9FF",
"G. c #F2EFFF",
"H. c gray77",
"J. c gray76",
"K. c #FEFDFF",
"L. c #D8D0FF",
"P. c #9E8AFF",
"I. c #8F77FF",
"U. c #8F76FF",
"Y. c #9179FF",
"T. c #AF9EFF",
"R. c #ECE8FF",
"E. c #FEFEFE",
"W. c #F9F9F9",
"Q. c #E6E0FF",
"!. c #9E89FF",
"~. c #9078FF",
"^. c #A895FF",
"/. c #E3DDFF",
"(. c gray99",
"). c gray51",
"_. c #D2D2D2",
"`. c #F3F1FF",
"'. c #AD9BFF",
"]. c #A08BFF",
"[. c #E5DFFF",
"{. c gray73",
"}. c gray97",
"|. c #D0C5FF",
" X c #BDAFFF",
".X c gray93",
"XX c gray54",
"oX c #B7A8FF",
"OX c #A28DFF",
"+X c #F4F2FF",
"@X c gray55",
"#X c gray57",
"$X c #F7F5FF",
"%X c #AA98FF",
"&X c #9D87FF",
"*X c #F3F0FF",
"=X c #929292",
"-X c #FDFEFD",
";X c #F6F5FF",
":X c #A794FF",
">X c #F6F4FF",
",X c #F6F6F6",
"<X c #B7A7FF",
"1X c #BBACFF",
"2X c #FDFCFF",
"3X c #888888",
"4X c #CDC2FF",
"5X c #CEC3FF",
"6X c gray89",
"7X c #C0C0C0",
"8X c #E0DAFF",
"9X c #967FFF",
"0X c #9077FF",
"qX c #A592FF",
"wX c #A2A2A2",
"eX c #7B7B7B",
"rX c #F9F7FF",
"tX c #937BFF",
"yX c #E2DCFF",
"uX c #DCDCDB",
"iX c #AFAFAF",
"pX c #F8F7FF",
"aX c #CFC5FF",
"sX c #A38FFF",
"dX c #927BFF",
"fX c #9F8BFF",
"gX c #D9D1FF",
"hX c gray95",
"jX c #BBBBBB",
"kX c #EDE9FF",
"lX c #D5CCFF",
"zX c #C9BEFF",
"xX c #C1B3FF",
"cX c #BCAEFF",
"vX c #C8BCFF",
"bX c #EAE6FF",
"nX c gray62",
"mX c #B6B6B6",
"MX c gray98",
"NX c #FDFDFF",
"BX c gray96",
"VX c #ACACAC",
"CX c #959595",
"ZX c #FBFBFA",
"AX c gray94",
"SX c #CACACA",
/* pixels */
"                                                                ",
"                                                                ",
"                                                                ",
"                                                                ",
"                                                                ",
"                    . X , < 1 2 3 4 5 6 7 o                     ",
"                O 8 9 0 q w e r t y u i p a s +                 ",
"              @ d f g h j f.g.h.j.h.k.l.k l z x #               ",
"            $ c v b z.x.c.v.b.b.n.m.M.M.N.l.n m M #             ",
"          @ % N B B.M.m.V.C.Z.A.S.D.F.G.M.M.H.V C Z &           ",
"          & A S J.M.K.L.P.I.I.I.U.U.Y.T.R.M.E.l.D F *           ",
"        & G H J W.M.Q.!.I.~.Y.Y.Y.~.~.I.^./.m.(.).K = $         ",
"        * L P _.M.`.'.I.~.Y.Y.Y.Y.Y.Y.~.I.].[.M.{.I U *         ",
"        * Y T }.M.|.Y.~.Y.Y.Y.Y.Y.Y.Y.Y.~.I. XK..XR E - $       ",
"        * W XXM.v.oXU.Y.Y.Y.Y.Y.Y.Y.Y.Y.Y.I.OX+XM.@XQ ; &       ",
"        - ! #XM.$X%XI.Y.Y.Y.Y.Y.Y.Y.Y.Y.Y.~.&X*XM.=X~ - *       ",
"        * ^ / -X;X:XI.Y.Y.Y.Y.Y.Y.Y.Y.Y.Y.I.:X>XM.=X( -         ",
"        * ) _ ,Xv.<XU.Y.Y.Y.Y.Y.Y.Y.Y.Y.Y.U.1X2XM.3X` *         ",
"        * ' ] f.M.4X~.~.Y.Y.Y.Y.Y.Y.Y.Y.~.~.5XM.6X[ { *         ",
"        * } | 7XM.8X9X~.Y.Y.Y.Y.Y.Y.Y.~.0XqXR.M.wX ...&         ",
"        & : X.eXW.rX1XtXI.~.~.Y.Y.Y.~.I.P.yXM.uXo.O.- $         ",
"          & +.@.iXc.pXaXsXdXI.U.U.U.0XfXgXM.hX#.$.%.*           ",
"          & & &.*.jXE.m.kXlXzXxXcXcXvXbXm.c.nX=.-.@             ",
"            @ ;.:.>.mXMXM.M.M.m.NXK.m.M.BXVX,.<.@               ",
"              . 1.2.3.CXx.c.M.M.E.ZXAXSX4.5.6.  -               ",
"                . $ 7.8.9.0.=X=Xq.r w.e.r.t.o >                 ",
"                    O y.u.i.( ( p.a.s.d.1.>                     ",
"                                                                ",
"                                                                ",
"                                                                ",
"                                                                ",
"                                                                "
};
