/* XPM */
static char *ae6530aff0394f55aeff1af3dc08ffceomI5fSlW0c0nhqwW[] = {
/* columns rows colors chars-per-pixel */
"16 16 126 2 ",
"   c black",
".  c #0C0C0C",
"X  c #0E0E0E",
"o  c gray8",
"O  c #A4A4A4",
"+  c gray30",
"@  c #535353",
"#  c #1D1D1D",
"$  c gray16",
"%  c gray14",
"&  c #494949",
"*  c #414141",
"=  c #5D5D5D",
"-  c #5B5B5B",
";  c gray34",
":  c gray36",
">  c gray24",
",  c #3F3F3F",
"<  c #252525",
"1  c gray12",
"2  c #464646",
"3  c #313131",
"4  c #ACACAC",
"5  c #323232",
"6  c #131313",
"7  c black",
"8  c #282828",
"9  c #3A3A3A",
"0  c gray24",
"q  c gray17",
"w  c #040404",
"e  c black",
"r  c gray22",
"t  c #626262",
"y  c #9A9A99",
"u  c #BABAB8",
"i  c #BDBDBB",
"p  c #A1A1A0",
"a  c #696968",
"s  c gray19",
"d  c gray19",
"f  c #8E8F8E",
"g  c #D9D9DA",
"h  c #838483",
"j  c gray18",
"k  c black",
"l  c #6C6C6C",
"z  c None",
"x  c #6A6A6A",
"c  c black",
"v  c gray19",
"b  c #A7A7A6",
"n  c #9E9F9D",
"m  c gray16",
"M  c #414141",
"N  c #C2C2C1",
"B  c #C0C0C0",
"V  c #3F3F3F",
"C  c gray23",
"Z  c #BBBBB9",
"A  c #C0C0BF",
"S  c #3F3F3F",
"D  c #222222",
"F  c #9D9E9C",
"G  c #979796",
"H  c gray15",
"J  c #6A6A69",
"K  c #D2D1D7",
"L  c #C6C6C8",
"P  c #5B5B5B",
"I  c black",
"U  c gray16",
"Y  c #7E7E7E",
"T  c #D7D7DA",
"R  c #D3D3D6",
"E  c #7A7A79",
"W  c #0B0B0B",
"Q  c gray16",
"!  c #747474",
"~  c #B4B4B3",
"^  c #C5C5C3",
"/  c #C0C0BE",
"(  c #A4A5A3",
")  c #6E6E6D",
"_  c #2D2D2D",
"`  c gray9",
"'  c gray22",
"]  c gray26",
"[  c #3F3F3F",
"{  c #2C2C2C",
"}  c gray3",
"|  c #D8D7DA",
" . c #DAD4F8",
".. c #D4CBFF",
"X. c #DAD2FF",
"o. c #E7E2FB",
"O. c #D6CCFF",
"+. c #9B85FF",
"@. c #927AFF",
"#. c #937BFF",
"$. c #A18DFF",
"%. c #DAD1FF",
"&. c #E7E2FC",
"*. c #A08BFF",
"=. c #8F77FF",
"-. c #9078FF",
";. c #9C86FF",
":. c #DFD8FB",
">. c #9179FF",
",. c #CCC1FF",
"<. c #D3C9FF",
"1. c #917AFF",
"2. c #D4CAFF",
"3. c #E0DAFA",
"4. c #9982FF",
"5. c #9E89FF",
"6. c #E1DCF7",
"7. c #C9BDFF",
"8. c #9D88FF",
"9. c #947DFF",
"0. c #9C87FF",
"q. c #D4CAFE",
"w. c #E9E5FE",
"e. c #DED6FF",
"r. c #E3DEFC",
"t. c white",
/* pixels */
"                                ",
"                                ",
"        . 7 8 9 0 q w X         ",
"    o e r t y u i p a s O       ",
"    + d f |  ...X.o.g h j @ #   ",
"  $ k l z O.+.@.#.$.%.| x c %   ",
"  & v b &.*.=.-.-.=.;.:.n m *   ",
"  = M N ..@.-.>.>.-.-.,.B V -   ",
"  ; C Z <.@.-.>.>.-.1.2.A S :   ",
"  > D F 3.4.=.-.-.=.5.6.G H ,   ",
"  < c J K 7.8.9.#.0.q.L P I 1   ",
"  . 2 U Y T w.e.%.r.R E W 3     ",
"      4 Q ! ~ ^ / ( ) _ &       ",
"        5 ` ' ] [ { } 6         ",
"                                ",
"                                "
};
