/* XPM */
static char *_dea25ebf484447cdbaa009d84d04859cvvq8r0ySmuC4heV[] = {
/* columns rows colors chars-per-pixel */
"16 16 4 1 ",
"  c None",
". c #6E1111",
"X c #B31D1D",
"o c #AC3232",
/* pixels */
"                ",
"                ",
"                ",
"                ",
"     ooXXX      ",
"    ooooXXX     ",
"   ooooooXXX    ",
"  .oooooooXXX   ",
"  .ooooooooXX   ",
"  .ooooooooXX   ",
"   .oooooooX    ",
"    .oooooo     ",
"     .oooo      ",
"                ",
"                ",
"                "
};
